<?xml version="1.0" encoding="UTF-8"?>
<svg id="Ebene_1" data-name="Ebene 1" xmlns="http://www.w3.org/2000/svg" viewBox="0 0 703.05 115.61">
  <defs>
    <style>
      .cls-1 {
        fill: #fff;
      }
    </style>
  </defs>
  <path class="cls-1" d="M126.43,115.61c-24.72,0-42.48-18.07-42.48-42.33s17.77-42.33,42.17-42.33,39.24,17.92,39.24,42.33c0,1.85-.15,4.48-.46,6.02h-63.49c2.16,13.13,11.59,21.32,25.18,21.32,9.89,0,16.99-3.55,22.71-10.81l9.73,10.04c-7.88,10.5-19,15.76-32.6,15.76ZM106.87,67.25h41.96c-1.24-12.67-10.2-21.63-23.02-21.63-11.14,0-19.39,6.12-22.96,16-.99,2.74,1.1,5.63,4.01,5.63Z"/>
  <path class="cls-1" d="M270.6,47.94h-5.65c-4.69,0-8.49-3.8-8.49-8.49v-6.03s14.13,0,14.13,0V12.72h16.68v20.7h21.63v14.52h-21.63v50.52h19.31v14.68h-27.51c-4.69,0-8.49-3.8-8.49-8.49v-56.71Z"/>
  <path class="cls-1" d="M319.61,113.14V33.42h16.68v79.71h-16.68Z"/>
  <path class="cls-1" d="M520.57,115.61c-24.72,0-42.48-18.07-42.48-42.33s17.77-42.33,42.17-42.33,39.24,17.92,39.24,42.33c0,1.85-.15,4.48-.46,6.02h-63.49c2.16,13.13,11.59,21.32,25.18,21.32,9.89,0,16.99-3.55,22.71-10.81l9.73,10.04c-7.88,10.5-19,15.76-32.6,15.76ZM501,67.25h41.96c-1.24-12.67-10.2-21.63-23.02-21.63-11.14,0-19.39,6.12-22.96,16-.99,2.74,1.1,5.63,4.01,5.63Z"/>
  <path class="cls-1" d="M664.74,47.94h-6.05c-5.31,0-9.61-4.3-9.61-9.61v-4.91h15.66V12.72h16.68v20.7h21.63v14.52h-21.63v50.52h19.31v14.68h-26.39c-5.31,0-9.61-4.3-9.61-9.61v-55.58Z"/>
  <path class="cls-1" d="M319.61.59v11.48c0,4.69,3.8,8.49,8.49,8.49h8.2V.59h-16.68Z"/>
  <path class="cls-1" d="M376.52,30.98v11.48c0,4.69,3.8,8.49,8.49,8.49h8.2v-19.96h-16.68Z"/>
  <path class="cls-1" d="M29.59,0v11.48c0,4.69,3.8,8.49,8.49,8.49h8.2V0h-16.68Z"/>
  <path class="cls-1" d="M46.41,19.91v11.48c0,4.69,3.8,8.49,8.49,8.49h8.2v-19.96h-16.68Z"/>
  <path class="cls-1" d="M425.68,30.98v11.48c0,4.69,3.8,8.49,8.49,8.49h8.2v-19.96h-16.68Z"/>
  <g>
    <rect class="cls-1" x="179.02" y="47.97" width="16.68" height="65.17"/>
    <path class="cls-1" d="M195.82,33.42v6.03c0,4.69,3.8,8.49,8.49,8.49h24.45v65.19h16.68V33.42h-49.62Z"/>
  </g>
  <g>
    <rect class="cls-1" x="573.11" y="47.97" width="16.68" height="65.17"/>
    <path class="cls-1" d="M589.92,33.42v6.03c0,4.69,3.8,8.49,8.49,8.49h24.45v65.19h16.68V33.42h-49.62Z"/>
  </g>
  <g>
    <path class="cls-1" d="M447.59,58.69c.09.72.14,1.46.14,2.23v52.22h16.68v-52.06c0-.8-.03-1.6-.08-2.38h-16.74Z"/>
    <path class="cls-1" d="M354.65,58.69c-.05.78-.08,1.58-.08,2.38v52.06h16.68v-52.22c0-.76.05-1.5.14-2.23h-16.74Z"/>
    <path class="cls-1" d="M400.93,58.69c.09.72.14,1.46.14,2.23v52.22h16.68v-52.22c0-.76.05-1.5.14-2.23h-16.95Z"/>
  </g>
  <path class="cls-1" d="M5.05,32.6c2.69,11.33,11.26,17.18,21.21,22.92l17.77,10.5c9.42,5.41,12.67,11.43,12.67,17.92,0,9.42-6.64,16.37-18.38,16.37-14.83,0-21.94-12.05-23.33-23.33l-14.98,5.1c2.47,18.85,14.52,33.52,37.69,33.52,21.78,0,36.3-12.82,36.3-32.13,0-14.37-8.5-23.64-20.86-31.05l-19.31-11.59c-4.71-2.66-8.14-5.17-10.26-8.25H5.05Z"/>
</svg>